HIERARCHY
ROOT SpineBase
{
  OFFSET 0.000000 0.000000 0.000000
  CHANNELS 6 Xposition Yposition Zposition Zrotation Xrotation Yrotation
  JOINT SpineMid
  {
    OFFSET 0.000000 25.579679 0.000000
    CHANNELS 3 Zrotation Xrotation Yrotation
    JOINT SpineShoulder
    {
      OFFSET -0.039835 19.139155 -0.640042
      CHANNELS 3 Zrotation Xrotation Yrotation
      JOINT Neck
      {
        OFFSET -0.029725 6.389217 -0.492754
        CHANNELS 3 Zrotation Xrotation Yrotation
        JOINT Head
        {
          OFFSET -9.270546 10.289788 3.789809
          CHANNELS 3 Zrotation Xrotation Yrotation
          End Site
          {
            OFFSET 0 0 0
          }
        }
      }
      JOINT ShoulderLeft
      {
        OFFSET -15.690721 1.471475 3.495711
        CHANNELS 3 Zrotation Xrotation Yrotation
        JOINT ElbowLeft
        {
          OFFSET -6.074022 -23.743256 -2.182927
          CHANNELS 3 Zrotation Xrotation Yrotation
          JOINT WristLeft
          {
            OFFSET 14.602454 6.058404 7.943557
            CHANNELS 3 Zrotation Xrotation Yrotation
            JOINT HandLeft
            {
              OFFSET 2.335796 4.027379 0.735466
              CHANNELS 3 Zrotation Xrotation Yrotation
              JOINT HandTipLeft
              {
                OFFSET 1.109918 4.441776 3.728042
                CHANNELS 3 Zrotation Xrotation Yrotation
                End Site
                {
                  OFFSET 0 0 0
                }
              }
              JOINT ThumbLeft
              {
                OFFSET 3.829178 2.430707 -7.240771
                CHANNELS 3 Zrotation Xrotation Yrotation
                End Site
                {
                  OFFSET 0 0 0
                }
              }
            }
          }
        }
      }
      JOINT ShoulderRight
      {
        OFFSET 1.773274 2.127491 -4.718496
        CHANNELS 3 Zrotation Xrotation Yrotation
        JOINT ElbowRight
        {
          OFFSET 1.198011 -19.016220 -8.264621
          CHANNELS 3 Zrotation Xrotation Yrotation
          JOINT WristRight
          {
            OFFSET -8.151383 -22.009940 -1.904339
            CHANNELS 3 Zrotation Xrotation Yrotation
            JOINT HandRight
            {
              OFFSET -2.694450 -7.433968 -0.303544
              CHANNELS 3 Zrotation Xrotation Yrotation
              JOINT HandTipRight
              {
                OFFSET -0.551782 0.483447 -1.150753
                CHANNELS 3 Zrotation Xrotation Yrotation
                End Site
                {
                  OFFSET 0 0 0
                }
              }
              JOINT ThumbRight
              {
                OFFSET -0.069087 0.734915 -1.910339
                CHANNELS 3 Zrotation Xrotation Yrotation
                End Site
                {
                  OFFSET 0 0 0
                }
              }
            }
          }
        }
      }
    }
  }
  JOINT HipLeft
  {
    OFFSET -4.625671 -0.258793 0.343800
    CHANNELS 3 Zrotation Xrotation Yrotation
    JOINT KneeLeft
    {
      OFFSET -2.486326 -40.903592 -4.561548
      CHANNELS 3 Zrotation Xrotation Yrotation
      JOINT AnkleLeft
      {
        OFFSET 15.783730 44.963445 -8.643112
        CHANNELS 3 Zrotation Xrotation Yrotation
        JOINT FootLeft
        {
          OFFSET -0.393625 -1.621100 -10.216295
          CHANNELS 3 Zrotation Xrotation Yrotation
          End Site
          {
            OFFSET 0 0 0
          }
        }
      }
    }
  }
  JOINT HipRight
  {
    OFFSET 3.937793 2.310453 -6.387912
    CHANNELS 3 Zrotation Xrotation Yrotation
    JOINT KneeRight
    {
      OFFSET -10.145858 -40.247869 1.711266
      CHANNELS 3 Zrotation Xrotation Yrotation
      JOINT AnkleRight
      {
        OFFSET -2.343469 -33.267147 9.850842
        CHANNELS 3 Zrotation Xrotation Yrotation
        JOINT FootRight
        {
          OFFSET -1.732712 14.008690 -4.200897
          CHANNELS 3 Zrotation Xrotation Yrotation
          End Site
          {
            OFFSET 0 0 0
          }
        }
      }
    }
  }
}
MOTION
Frames: 14
Frame Time: 0.033333
20.308215 74.556229 358.587159 -0.000000 0.000000 38.170778 0.000000 0.000000 -38.170778 -0.000000 0.000000 0.000000 -0.000000 0.000000 0.000000 0.000000 0.000000 0.000000 -0.000000 0.000000 0.000000 -0.000000 0.000000 0.000000 -0.000000 0.000000 0.000000 -0.000000 0.000000 0.000000 0.000000 0.000000 0.000000 0.000000 0.000000 0.000000 -0.000000 0.000000 0.000000 -0.000000 0.000000 0.000000 -0.000000 0.000000 0.000000 -0.000000 0.000000 0.000000 0.000000 0.000000 0.000000 0.000000 0.000000 0.000000 0.000000 0.000000 -38.170778 -0.000000 0.000000 0.000000 -0.000000 0.000000 0.000000 0.000000 0.000000 0.000000 0.000000 0.000000 -38.170778 -0.000000 0.000000 0.000000 -0.000000 0.000000 0.000000 0.000000 0.000000 0.000000
20.703354 75.083896 358.522816 -0.163881 0.320124 33.587018 -0.040573 -0.357337 -33.586687 -0.000000 0.000000 0.000000 -0.000000 0.000000 0.000000 0.000000 0.000000 0.000000 -0.000000 0.000000 0.000000 -8.453657 5.673751 -1.739518 6.690673 6.148282 -3.722712 3.110953 2.221205 2.051669 0.000000 0.000000 0.000000 0.000000 0.000000 0.000000 -0.000000 0.000000 0.000000 -0.000000 0.000000 0.000000 -0.000000 0.000000 0.000000 -0.000000 0.000000 0.000000 0.000000 0.000000 0.000000 0.000000 0.000000 0.000000 0.427970 -1.218374 -33.649100 2.622793 -0.443232 1.069479 -3.417451 2.614592 -1.496496 0.000000 0.000000 0.000000 -1.046557 0.016005 -33.572243 1.044634 0.245199 -0.019676 -0.000000 0.000000 0.000000 0.000000 0.000000 0.000000
20.932942 75.547454 358.478793 -0.292724 0.556031 29.972097 -0.024198 -0.627908 -29.970810 -0.000000 0.000000 0.000000 -0.000000 0.000000 0.000000 0.000000 0.000000 0.000000 -0.000000 0.000000 0.000000 -16.351880 11.094983 -2.469785 13.118105 14.862921 -8.009698 5.798541 11.479496 2.971363 0.000000 0.000000 0.000000 0.000000 0.000000 0.000000 -0.000000 0.000000 0.000000 -0.000000 0.000000 0.000000 -0.000000 0.000000 0.000000 -0.000000 0.000000 0.000000 0.000000 0.000000 0.000000 0.000000 0.000000 0.000000 0.811602 -2.208964 -30.061206 4.700466 -0.587357 1.872320 -6.157504 4.425083 -1.849035 0.000000 0.000000 0.000000 -1.716251 -0.012206 -29.977001 1.773343 0.311935 -0.008089 -0.812011 0.154775 -0.223554 0.000000 0.000000 0.000000
20.996980 75.946901 358.455089 -0.388964 0.712856 26.861176 0.012924 0.057681 -26.870551 -0.002620 0.072378 -0.015283 0.406509 -0.842338 0.030403 0.000000 0.000000 0.000000 0.406509 -0.842338 0.030403 -23.059239 15.560361 -2.330269 18.828424 23.887237 -12.136391 6.764465 26.766266 2.220999 0.000000 0.000000 0.000000 0.000000 0.000000 0.000000 0.406509 -0.842338 0.030403 -0.000000 0.000000 0.000000 -0.000000 0.000000 0.000000 -0.000000 0.000000 0.000000 0.000000 0.000000 0.000000 0.000000 0.000000 0.000000 1.083136 -3.005463 -26.949413 6.226818 -0.472313 2.390451 -8.279126 5.367083 -1.080677 0.000000 0.000000 0.000000 -2.016399 -0.001349 -26.915522 2.186978 0.201239 0.038616 -1.153879 0.188818 -0.321337 0.000000 0.000000 0.000000
20.895467 76.282239 358.451705 -0.454309 0.794013 23.934745 0.012214 0.065072 -23.945372 -0.002930 0.081541 -0.017850 0.472988 -0.939721 0.035962 0.000000 0.000000 0.000000 0.472988 -0.939721 0.035962 -28.194733 18.711756 -1.664590 23.264407 29.850066 -14.771936 6.336613 39.954842 1.019715 0.000000 0.000000 0.000000 0.000000 0.000000 0.000000 0.472988 -0.939721 0.035962 -0.000000 0.000000 0.000000 -0.000000 0.000000 0.000000 -0.000000 0.000000 0.000000 0.000000 0.000000 0.000000 0.000000 0.000000 0.000000 1.211099 -3.633630 -24.000074 7.210420 -0.129212 2.623224 -9.795971 5.415316 0.731732 0.000000 0.000000 0.000000 -1.959864 0.101263 -24.064986 2.286870 -0.086418 0.121363 -1.452905 0.193665 -0.410157 0.000000 0.000000 0.000000
20.628404 76.553467 358.468640 -0.489825 0.801353 20.912908 0.010480 0.066526 -20.924350 -0.002926 0.083502 -0.019282 0.507268 -0.950432 0.038882 0.000000 0.000000 0.000000 0.507268 -0.950432 0.038882 -31.609396 20.501763 -0.809554 25.552930 27.463662 -13.015892 8.891125 52.831499 -5.142119 0.000000 0.000000 0.000000 0.000000 0.000000 0.000000 0.507268 -0.950432 0.038882 -0.000000 0.000000 0.000000 -0.000000 0.000000 0.000000 -0.000000 0.000000 0.000000 0.000000 0.000000 0.000000 0.000000 0.000000 0.000000 1.185987 -4.115573 -20.936976 7.661811 0.423457 2.581362 -10.668898 4.581805 3.457452 0.000000 0.000000 0.000000 -1.564360 0.339112 -21.145163 2.074457 -0.551244 0.238191 -1.709064 0.169148 -0.490222 0.000000 0.000000 0.000000
18.073712 75.919495 358.821579 -0.441378 0.428450 9.233269 0.366927 -0.493709 -9.230037 -0.000000 0.000000 0.000000 -0.000000 0.000000 0.000000 0.000000 0.000000 0.000000 -0.000000 0.000000 0.000000 -35.362088 18.909418 4.016854 103.275507 -41.951079 74.175354 123.100389 21.268973 -179.937479 0.000000 0.000000 0.000000 0.000000 0.000000 0.000000 -0.000000 0.000000 0.000000 -0.000000 0.000000 0.000000 -0.000000 0.000000 0.000000 -0.000000 0.000000 0.000000 0.000000 0.000000 0.000000 0.000000 0.000000 0.000000 1.301410 -4.695962 -9.122089 6.231787 2.149337 1.760020 -9.783089 -2.927296 15.679361 0.000000 0.000000 0.000000 -0.327373 2.245476 -9.919814 1.156799 -2.578313 0.726426 -1.777613 -0.187154 -0.559958 0.000000 0.000000 0.000000
19.795503 77.836967 358.413922 -0.672779 0.341591 5.223347 0.638903 -0.401397 -5.219103 -0.669421 0.470107 -0.046711 0.669827 -0.469529 0.052202 0.000000 0.000000 0.000000 0.669827 -0.469529 0.052202 -33.749688 20.898412 0.532438 91.527534 -51.945021 79.704907 117.023564 68.320805 -143.552463 0.000000 0.000000 0.000000 0.000000 0.000000 0.000000 0.669827 -0.469529 0.052202 -0.000000 0.000000 0.000000 -0.000000 0.000000 0.000000 -0.000000 0.000000 0.000000 0.000000 0.000000 0.000000 0.000000 0.000000 0.000000 1.673530 -5.048901 -5.055300 6.220983 3.795616 1.141017 -9.515772 -0.512030 11.284522 0.000000 0.000000 0.000000 0.579326 2.671008 -6.002736 0.380936 -3.049302 0.794953 -2.646300 -0.227260 -0.828927 0.000000 0.000000 0.000000
19.724197 76.527559 358.340172 -0.812939 -0.074584 6.064646 0.816269 -0.011726 -6.065092 -0.000000 0.000000 0.000000 -0.000000 0.000000 0.000000 0.000000 0.000000 0.000000 -0.000000 0.000000 0.000000 -26.706581 20.338749 -4.976309 69.737581 -40.793237 55.585658 -0.659868 57.575731 -28.180633 0.000000 0.000000 0.000000 0.000000 0.000000 0.000000 -0.000000 0.000000 0.000000 -0.000000 0.000000 0.000000 -0.000000 0.000000 0.000000 -0.000000 0.000000 0.000000 0.000000 0.000000 0.000000 0.000000 0.000000 0.000000 1.925949 -4.237348 -5.947831 5.112871 3.598574 1.001262 -8.851078 -0.368785 13.366519 0.000000 0.000000 0.000000 1.087151 3.331822 -6.922998 0.134106 -3.351811 0.853980 -3.674193 0.037842 -1.100735 0.000000 0.000000 0.000000
19.067513 75.569504 360.966633 -0.568456 0.142285 -1.753099 0.572544 -0.124822 1.754429 -0.000000 0.000000 0.000000 -0.000000 0.000000 0.000000 0.000000 0.000000 0.000000 -0.000000 0.000000 0.000000 -21.441857 15.593995 -3.912178 33.208139 -45.091692 35.222426 37.208307 39.298771 -54.231409 0.000000 0.000000 0.000000 0.000000 0.000000 0.000000 -0.000000 0.000000 0.000000 -0.000000 0.000000 0.000000 -0.000000 0.000000 0.000000 -0.000000 0.000000 0.000000 0.000000 0.000000 0.000000 0.000000 0.000000 0.000000 1.795740 -5.076130 1.995151 2.260267 1.548522 1.522569 -6.070120 -0.765030 21.838077 0.000000 0.000000 0.000000 1.104101 4.055502 0.711462 -0.584927 -4.173209 1.003413 -0.869282 -0.390742 -0.311951 0.000000 0.000000 0.000000
16.904472 74.542675 363.719241 -0.191026 0.647316 -14.911036 0.351175 -0.576358 14.913881 -0.000000 0.000000 0.000000 -0.000000 0.000000 0.000000 0.000000 0.000000 0.000000 -0.000000 0.000000 0.000000 -10.520320 1.961790 7.450744 6.268004 -38.732984 13.864528 -12.833101 -25.435614 12.845536 0.000000 0.000000 0.000000 0.000000 0.000000 0.000000 -0.000000 0.000000 0.000000 -0.000000 0.000000 0.000000 -0.000000 0.000000 0.000000 -0.000000 0.000000 0.000000 0.000000 0.000000 0.000000 0.000000 0.000000 0.000000 1.393458 -6.898105 15.442398 2.180689 2.293536 1.106716 -4.136227 5.084213 14.577680 0.000000 0.000000 0.000000 1.036005 4.455528 13.785067 -1.869113 -4.722537 1.028533 0.919491 -0.609055 0.204765 0.000000 0.000000 0.000000
17.601434 75.553913 362.818919 -0.099151 1.044294 -1.899370 -0.003090 -0.052422 1.898771 -0.010430 -0.082283 -0.003353 0.114482 -0.909710 0.005502 0.000000 0.000000 0.000000 0.114482 -0.909710 0.005502 2.084365 -7.416074 17.428670 -7.631612 -22.763803 0.942350 -16.725865 -37.806638 25.482270 0.000000 0.000000 0.000000 0.000000 0.000000 0.000000 0.114482 -0.909710 0.005502 -0.000000 0.000000 0.000000 -0.000000 0.000000 0.000000 -0.000000 0.000000 0.000000 0.000000 0.000000 0.000000 0.000000 0.000000 0.000000 -0.599397 -6.859180 2.308517 4.091785 4.286520 0.341560 -4.738181 5.147398 7.216598 0.000000 0.000000 0.000000 2.049731 2.352882 1.122205 -1.985151 -3.353768 0.699205 1.494533 -0.628018 0.377484 0.000000 0.000000 0.000000
18.500126 76.246818 368.762169 0.256608 2.502848 2.064092 -2.513351 69.859050 -0.553405 8.972822 -70.300458 6.571232 -1.182935 -7.453596 -4.962556 0.000000 0.000000 0.000000 -0.260495 -1.829919 -0.032725 13.372610 -12.837179 25.817955 -17.667543 -1.371898 -8.590853 -15.539504 -53.957375 35.882416 0.000000 0.000000 0.000000 0.000000 0.000000 0.000000 -0.260495 -1.829919 -0.032725 -0.000000 0.000000 0.000000 -0.000000 0.000000 0.000000 0.227445 -0.903463 -0.477948 0.000000 0.000000 0.000000 0.000000 0.000000 0.000000 -2.766795 -6.934236 -1.748847 10.255435 3.172703 0.852686 -5.717063 14.012841 -10.513146 0.000000 0.000000 0.000000 2.837358 3.570501 -3.551835 -2.816787 -6.243355 1.290921 3.370417 -4.071978 0.618143 0.000000 0.000000 0.000000
18.810087 77.789920 362.950166 0.725947 3.018008 6.456800 -1.200661 -17.665168 -6.507034 -0.847212 17.386588 0.048456 1.298665 -0.281045 1.397865 0.000000 0.000000 0.000000 -0.698994 -2.717356 -0.082983 21.340606 -15.646906 33.485832 -20.186130 7.390980 -13.894284 -17.734785 -56.128263 41.009076 0.000000 0.000000 0.000000 0.000000 0.000000 0.000000 -0.698994 -2.717356 -0.082983 -0.000000 0.000000 0.000000 -0.000000 0.000000 0.000000 -0.000000 0.000000 0.000000 0.000000 0.000000 0.000000 0.000000 0.000000 0.000000 -4.900981 -10.005256 -6.144951 12.435901 12.433207 -2.724441 -4.403046 11.252915 -17.705014 0.000000 0.000000 0.000000 2.231774 -2.842421 -6.309970 -3.260900 -0.439992 -0.040000 6.178496 0.131047 1.851840 0.000000 0.000000 0.000000
